<?xml version="1.0" encoding="utf-8"?>
<!-- Generator: Adobe Illustrator 27.5.0, SVG Export Plug-In . SVG Version: 6.00 Build 0)  -->
<svg version="1.1" xmlns="http://www.w3.org/2000/svg" xmlns:xlink="http://www.w3.org/1999/xlink" x="0px" y="0px"
	 viewBox="0 0 500 500" style="enable-background:new 0 0 500 500;" xml:space="preserve">
<g id="BACKGROUND">
	<rect style="fill:#FFFFFF;" width="500" height="500"/>
</g>
<g id="OBJECTS">
	<g>
		<path style="fill:#F3F3F3;" d="M133.841,196.987c3.179-17.646,8.803-34.751,17.272-50.64
			C177.776,96.328,220.84,48.361,283.386,64.7c30.482,7.964,47.404,30.487,48.628,61.549c1.195,30.338-16.509,60.774-11.217,90.415
			c2.31,12.938,10.387,17.883,18.881,27.196c25.991,28.496,35.446,67.047,26.291,104.546c-11.213,45.929-48.21,65.356-93.882,61.438
			c-58.193-4.993-105.979-34.598-126.196-90.684C132.165,281.084,126.524,237.606,133.841,196.987z"/>
		<g>
			<g>
				
					<ellipse transform="matrix(0.7071 -0.7071 0.7071 0.7071 -189.3884 187.6904)" style="fill:#F3F3F3;" cx="131.868" cy="322.457" rx="38.487" ry="38.487"/>
				<g>
					<path style="fill:#BD7154;" d="M144.491,350.634c0,0,5.862-9.708,3.908-19.637c-1.954-9.929-8.911-18.314-8.911-18.314h-5.93
						h-3.38h-5.93c0,0-6.957,8.384-8.911,18.314c-1.954,9.929,3.908,19.637,3.908,19.637c-2.345,0.441-1.759,3.972-1.759,3.972
						h12.692h3.38h12.692C146.25,354.606,146.836,351.075,144.491,350.634z"/>
					<path style="fill:#DB8C6C;" d="M141.75,321.544c-0.599-4.309-1.407-7.268-1.407-7.268l-7.136,1.867l-1.196,0.313l-1.172-0.313
						l-6.985-1.867c0,0-0.808,2.96-1.407,7.269c-0.76,1.785-3.647,8.758-2.56,9.169c0.968,0.365,1.664-0.355,1.929-0.696
						c0,0.014,0,0.029,0,0.043c-0.339,0.624-1.262,2.506-0.68,3.584c0.289,0.535,0.59,0.399,0.847,0.056
						c0.825,8.128,4.484,16.549,4.484,16.549s-3.217,0.945-3.078,4.356h7.605l0.506-18.952c0.009-0.338,0.255-0.607,0.554-0.607
						c0.299,0,0.544,0.267,0.554,0.604l0.593,18.955h7.605c0.139-3.411-3.078-4.356-3.078-4.356s3.66-8.422,4.484-16.549
						c0.256,0.343,0.558,0.479,0.847-0.056c0.582-1.078-0.341-2.96-0.68-3.584c0-0.015,0-0.029,0-0.043
						c0.264,0.341,0.961,1.061,1.929,0.696C145.397,330.302,142.51,323.329,141.75,321.544z"/>
					<g>
						<path style="fill:#BD7154;" d="M137.555,296.424c0,0,4.475-6.042,8.712-3.766c4.237,2.275,7.376,10.593,2.746,10.2
							c-4.629-0.392-3.766-5.521-5.885-5.35c-2.118,0.171,0.314,3.702-2.511,3.231C137.793,300.269,137.555,296.424,137.555,296.424
							z"/>
						<path style="fill:#C77F62;" d="M126.181,296.424c0,0-4.475-6.042-8.712-3.766c-4.237,2.275-7.376,10.593-2.746,10.2
							c4.629-0.392,3.766-5.521,5.885-5.35c2.118,0.171-0.314,3.702,2.511,3.231C125.943,300.269,126.181,296.424,126.181,296.424z"
							/>
					</g>
					<path style="fill:#192B3D;" d="M131.844,303.477c0,0,0.007-0.022,0.025-0.065c0.015,0.044,0.022,0.065,0.022,0.065H131.844z"/>
					<path style="fill:#DB8C6C;" d="M144.679,303.611c-0.309-0.458-0.675-0.879-1.118-1.238v-0.004
						c0.069-0.359,0.109-0.723,0.109-1.093c0-3.939-4.074-7.221-9.502-7.991c0.516-0.352,0.795-0.726,0.628-1.024
						c-0.635-1.136-2.632-0.461-2.774-0.414c0.087-0.087,0.955-0.973,0.425-1.485c-0.555-0.534-3.663,3.035-3.663,3.035
						c0,0.004,0.004,0.011,0.004,0.014c-5.032,0.962-8.721,4.114-8.721,7.864c0,0.37,0.04,0.733,0.109,1.093v0.004
						c-0.443,0.359-0.81,0.78-1.118,1.238c0,0-3.152,4.669-2.658,5.352c0.494,0.679,1.303-0.929,1.303-0.929s-0.799,2.821,0,2.708
						c0.447-0.062,0.817-0.748,1.057-1.34c1.322,2.876,3.366,5.01,5.758,6.401c4.495,2.618,10.217,2.614,14.704-0.004
						c2.389-1.391,4.43-3.522,5.751-6.397c0.243,0.592,0.614,1.278,1.06,1.34c0.799,0.112,0-2.708,0-2.708s0.81,1.608,1.303,0.929
						C147.831,308.28,144.679,303.611,144.679,303.611z M131.844,303.477c0,0,0.007-0.022,0.025-0.065
						c0.015,0.044,0.022,0.065,0.022,0.065H131.844z"/>
					<g>
						
							<path style="fill:none;stroke:#192B3D;stroke-width:0.4414;stroke-linecap:round;stroke-linejoin:round;stroke-miterlimit:10;" d="
							M132.017,310.053v1.59c0,0.908,0.736,1.644,1.645,1.644l0,0c0.707,0,1.335-0.452,1.56-1.123l0.165-0.494"/>
						
							<path style="fill:none;stroke:#192B3D;stroke-width:0.4414;stroke-linecap:round;stroke-linejoin:round;stroke-miterlimit:10;" d="
							M132.012,310.053v1.59c0,0.908-0.736,1.644-1.645,1.644l0,0c-0.707,0-1.335-0.452-1.56-1.123l-0.165-0.494"/>
					</g>
					<path style="fill:#192B3D;" d="M134.268,309.049c-0.341,0.736-0.932,1.271-1.423,1.616c-0.497,0.349-1.16,0.349-1.657,0
						c-0.491-0.345-1.083-0.88-1.423-1.616c-0.609-1.314,1.823-1.954,2.689-1.775C133.217,307.431,134.755,307.995,134.268,309.049z
						"/>
					<path style="fill:#233B54;" d="M132.808,308.249c0,0.256-0.555,0.464-1.241,0.464c-0.685,0-1.24-0.208-1.24-0.464
						c0-0.256,0.555-0.464,1.24-0.464C132.253,307.785,132.808,307.993,132.808,308.249z"/>
					<circle style="fill:#BD7154;" cx="127.169" cy="303.631" r="3.613"/>
					<g>
						<g>
							<path style="fill:#192B3D;" d="M138.003,303.631c0,0.631-0.512,1.143-1.143,1.143c-0.632,0-1.143-0.512-1.143-1.143
								s0.512-1.143,1.143-1.143C137.491,302.488,138.003,303,138.003,303.631z"/>
							<path style="fill:#FFFFFF;" d="M136.589,303.478c0,0.149-0.121,0.27-0.27,0.27c-0.149,0-0.27-0.121-0.27-0.27
								s0.121-0.27,0.27-0.27C136.468,303.208,136.589,303.329,136.589,303.478z"/>
						</g>
						<g>
							<circle style="fill:#192B3D;" cx="127.169" cy="303.631" r="1.143"/>
							<path style="fill:#FFFFFF;" d="M126.899,303.478c0,0.149-0.121,0.27-0.27,0.27s-0.27-0.121-0.27-0.27s0.121-0.27,0.27-0.27
								S126.899,303.329,126.899,303.478z"/>
						</g>
					</g>
					<path style="fill:#FF5255;" d="M122.397,314.276c0,0,3.88,3.892,10.412,3.489c6.532-0.403,8.133-3.146,8.133-3.146l1.671,2.517
						c0,0-5.71,2.651-10.108,3.034s-10.868-3.842-10.868-3.842L122.397,314.276z"/>
					<circle style="fill:#FF5255;" cx="132.125" cy="321.638" r="2.106"/>
					<circle style="fill:#FFFFFF;" cx="132.125" cy="321.638" r="1.088"/>
				</g>
			</g>
			<g>
				
					<ellipse transform="matrix(0.156 -0.9878 0.9878 0.156 -110.4952 269.1197)" style="fill:#F3F3F3;" cx="102.229" cy="199.217" rx="38.487" ry="38.487"/>
				<g>
					<path style="fill:#233B54;" d="M120.509,183.84H83.95c-2.285,0-4.136,1.852-4.136,4.136v22.48c0,2.284,1.852,4.136,4.136,4.136
						h36.559c2.284,0,4.136-1.852,4.136-4.136v-22.48C124.645,185.692,122.793,183.84,120.509,183.84z M109.891,196.91l-0.326,0.326
						l0.303,0.311c-0.182,0.137-0.395,0.243-0.637,0.288h-0.144v-0.402h-0.463v0.402h-0.175c-0.22-0.053-0.425-0.159-0.6-0.288
						l0.304-0.311l-0.334-0.326l-0.304,0.304c-0.167-0.22-0.281-0.486-0.326-0.774h0.44v-0.471h-0.433
						c0.038-0.288,0.152-0.554,0.319-0.774l0.304,0.304l0.334-0.326l-0.304-0.311c0.22-0.167,0.486-0.281,0.774-0.319v0.433h0.463
						v-0.433c0.296,0.038,0.562,0.152,0.782,0.319l-0.303,0.311l0.326,0.326l0.311-0.304c0.167,0.22,0.281,0.486,0.319,0.774h-0.433
						v0.471h0.433c-0.038,0.288-0.152,0.554-0.326,0.774L109.891,196.91z M94.591,197.547l0.304-0.311l-0.326-0.326l-0.304,0.304
						c-0.174-0.22-0.288-0.486-0.326-0.774h0.433v-0.471h-0.433c0.038-0.288,0.152-0.554,0.319-0.774l0.311,0.304l0.326-0.326
						l-0.304-0.311c0.22-0.167,0.486-0.281,0.782-0.319v0.433h0.463v-0.433c0.288,0.038,0.554,0.152,0.774,0.319l-0.304,0.311
						l0.334,0.326l0.304-0.304c0.167,0.22,0.281,0.486,0.319,0.774H96.83v0.471h0.44c-0.046,0.288-0.159,0.554-0.326,0.774
						l-0.304-0.304l-0.334,0.326l0.304,0.311c-0.182,0.137-0.395,0.243-0.63,0.288h-0.144v-0.402h-0.463v0.402h-0.175
						C94.97,197.782,94.765,197.684,94.591,197.547z"/>
					<path style="fill:#FFFFFF;" d="M118.634,187.4H85.825l-2.846,2.854v13.426h38.502v-13.426L118.634,187.4z M109.891,196.91
						l-0.326,0.326l0.303,0.311c-0.182,0.137-0.395,0.243-0.637,0.288h-0.144v-0.402h-0.463v0.402h-0.175
						c-0.22-0.053-0.425-0.159-0.6-0.288l0.304-0.311l-0.334-0.326l-0.304,0.304c-0.167-0.22-0.281-0.486-0.326-0.774h0.44v-0.471
						h-0.433c0.038-0.288,0.152-0.554,0.319-0.774l0.304,0.304l0.334-0.326l-0.304-0.311c0.22-0.167,0.486-0.281,0.774-0.319v0.433
						h0.463v-0.433c0.296,0.038,0.562,0.152,0.782,0.319l-0.303,0.311l0.326,0.326l0.311-0.304c0.167,0.22,0.281,0.486,0.319,0.774
						h-0.433v0.471h0.433c-0.038,0.288-0.152,0.554-0.326,0.774L109.891,196.91z M94.591,197.547l0.304-0.311l-0.326-0.326
						l-0.304,0.304c-0.174-0.22-0.288-0.486-0.326-0.774h0.433v-0.471h-0.433c0.038-0.288,0.152-0.554,0.319-0.774l0.311,0.304
						l0.326-0.326l-0.304-0.311c0.22-0.167,0.486-0.281,0.782-0.319v0.433h0.463v-0.433c0.288,0.038,0.554,0.152,0.774,0.319
						l-0.304,0.311l0.334,0.326l0.304-0.304c0.167,0.22,0.281,0.486,0.319,0.774H96.83v0.471h0.44
						c-0.046,0.288-0.159,0.554-0.326,0.774l-0.304-0.304l-0.334,0.326l0.304,0.311c-0.182,0.137-0.395,0.243-0.63,0.288h-0.144
						v-0.402h-0.463v0.402h-0.175C94.97,197.782,94.765,197.684,94.591,197.547z"/>
					<rect x="108.624" y="197.433" style="fill:#53CAB6;" width="0.463" height="0.402"/>
					<rect x="95.372" y="197.433" style="fill:#53CAB6;" width="0.463" height="0.402"/>
					<path style="fill:#53CAB6;" d="M121.48,191.536v6.299h-12.249c0.243-0.046,0.455-0.152,0.637-0.288l-0.303-0.311l0.326-0.326
						l0.304,0.304c0.174-0.22,0.288-0.486,0.326-0.774h-0.433v-0.471h0.433c-0.038-0.288-0.152-0.554-0.319-0.774l-0.311,0.304
						l-0.326-0.326l0.303-0.311c-0.22-0.167-0.486-0.281-0.782-0.319v0.433h-0.463v-0.433c-0.288,0.038-0.554,0.152-0.774,0.319
						l0.304,0.311l-0.334,0.326l-0.304-0.304c-0.167,0.22-0.281,0.486-0.319,0.774h0.433v0.471h-0.44
						c0.046,0.288,0.159,0.554,0.326,0.774l0.304-0.304l0.334,0.326l-0.304,0.311c0.175,0.129,0.38,0.235,0.6,0.288h-12.47
						c0.235-0.046,0.448-0.152,0.63-0.288l-0.304-0.311l0.334-0.326l0.304,0.304c0.167-0.22,0.281-0.486,0.326-0.774h-0.44v-0.471
						h0.433c-0.038-0.288-0.152-0.554-0.319-0.774l-0.304,0.304l-0.334-0.326l0.304-0.311c-0.22-0.167-0.486-0.281-0.774-0.319
						v0.433h-0.463v-0.433c-0.296,0.038-0.562,0.152-0.782,0.319l0.304,0.311l-0.326,0.326l-0.311-0.304
						c-0.167,0.22-0.281,0.486-0.319,0.774h0.433v0.471h-0.433c0.038,0.288,0.152,0.554,0.326,0.774l0.304-0.304l0.326,0.326
						l-0.304,0.311c0.174,0.137,0.38,0.235,0.607,0.288H82.979v-6.299H121.48z"/>
					<rect x="82.978" y="199.352" style="fill:#FF5255;" width="38.501" height="0.743"/>
					<path style="fill:#233B54;" d="M112.707,193.054H91.752c-0.865,0-1.654,0.357-2.224,0.926
						c-0.569,0.569-0.926,1.358-0.926,2.224c0,0.6,0.167,1.154,0.463,1.632c0.547,0.911,1.548,1.518,2.687,1.518h20.955
						c0.873,0,1.655-0.357,2.224-0.926c0.182-0.174,0.334-0.372,0.463-0.592c0.296-0.478,0.463-1.032,0.463-1.632
						C115.856,194.473,114.445,193.054,112.707,193.054z M109.891,196.91l-0.326,0.326l0.303,0.311
						c-0.182,0.137-0.395,0.243-0.637,0.288h-0.144v-0.402h-0.463v0.402h-0.175c-0.22-0.053-0.425-0.159-0.6-0.288l0.304-0.311
						l-0.334-0.326l-0.304,0.304c-0.167-0.22-0.281-0.486-0.326-0.774h0.44v-0.471h-0.433c0.038-0.288,0.152-0.554,0.319-0.774
						l0.304,0.304l0.334-0.326l-0.304-0.311c0.22-0.167,0.486-0.281,0.774-0.319v0.433h0.463v-0.433
						c0.296,0.038,0.562,0.152,0.782,0.319l-0.303,0.311l0.326,0.326l0.311-0.304c0.167,0.22,0.281,0.486,0.319,0.774h-0.433v0.471
						h0.433c-0.038,0.288-0.152,0.554-0.326,0.774L109.891,196.91z M96.64,196.91l-0.334,0.326l0.304,0.311
						c-0.182,0.137-0.395,0.243-0.63,0.288h-0.144v-0.402h-0.463v0.402h-0.175c-0.228-0.053-0.433-0.152-0.607-0.288l0.304-0.311
						l-0.326-0.326l-0.304,0.304c-0.174-0.22-0.288-0.486-0.326-0.774h0.433v-0.471h-0.433c0.038-0.288,0.152-0.554,0.319-0.774
						l0.311,0.304l0.326-0.326l-0.304-0.311c0.22-0.167,0.486-0.281,0.782-0.319v0.433h0.463v-0.433
						c0.288,0.038,0.554,0.152,0.774,0.319l-0.304,0.311l0.334,0.326l0.304-0.304c0.167,0.22,0.281,0.486,0.319,0.774H96.83v0.471
						h0.44c-0.046,0.288-0.159,0.554-0.326,0.774L96.64,196.91z"/>
					<path style="fill:#53CAB6;" d="M95.6,194.048c-1.192,0-2.155,0.964-2.155,2.155c0,0.653,0.288,1.245,0.751,1.632
						c0.38,0.326,0.865,0.524,1.404,0.524c0.539,0,1.025-0.197,1.404-0.524c0.463-0.387,0.751-0.979,0.751-1.632
						C97.756,195.012,96.792,194.048,95.6,194.048z M96.943,197.213l-0.304-0.304l-0.334,0.326l0.304,0.311
						c-0.182,0.137-0.395,0.243-0.63,0.288c-0.046,0.015-0.099,0.023-0.144,0.03v-0.433h-0.463v0.44
						c-0.061-0.008-0.121-0.023-0.175-0.038c-0.228-0.053-0.433-0.152-0.607-0.288l0.304-0.311l-0.326-0.326l-0.304,0.304
						c-0.174-0.22-0.288-0.486-0.326-0.774h0.433v-0.471h-0.433c0.038-0.288,0.152-0.554,0.319-0.774l0.311,0.304l0.326-0.326
						l-0.304-0.311c0.22-0.167,0.486-0.281,0.782-0.319v0.433h0.463v-0.433c0.288,0.038,0.554,0.152,0.774,0.319l-0.304,0.311
						l0.334,0.326l0.304-0.304c0.167,0.22,0.281,0.486,0.319,0.774H96.83v0.471h0.44C97.224,196.727,97.11,196.993,96.943,197.213z"
						/>
					<g>
						<g>
							<path style="fill:#FFFFFF;" d="M83.7,187.007c-0.023,0.146-0.081,0.28-0.165,0.391l-0.153-0.153l-0.169,0.165l0.154,0.157
								c-0.092,0.069-0.2,0.123-0.318,0.146h-0.073v-0.203H82.74v0.203h-0.088c-0.115-0.027-0.219-0.077-0.307-0.146l0.153-0.157
								l-0.165-0.165l-0.154,0.153c-0.088-0.111-0.146-0.245-0.165-0.391h0.219v-0.238h-0.219c0.019-0.146,0.077-0.28,0.161-0.391
								l0.157,0.154l0.165-0.165l-0.153-0.157c0.111-0.084,0.246-0.142,0.395-0.161v0.219h0.234v-0.219
								c0.146,0.019,0.28,0.077,0.391,0.161l-0.154,0.157l0.169,0.165l0.153-0.154c0.084,0.111,0.142,0.246,0.161,0.391h-0.219
								v0.238H83.7z"/>
							<path style="fill:#FFFFFF;" d="M122.444,187.007c-0.023,0.146-0.081,0.28-0.165,0.391l-0.154-0.153l-0.169,0.165l0.154,0.157
								c-0.092,0.069-0.2,0.123-0.319,0.146h-0.073v-0.203h-0.234v0.203h-0.088c-0.115-0.027-0.219-0.077-0.307-0.146l0.153-0.157
								l-0.165-0.165l-0.153,0.153c-0.088-0.111-0.146-0.245-0.165-0.391h0.219v-0.238h-0.219c0.019-0.146,0.077-0.28,0.161-0.391
								l0.157,0.154l0.165-0.165l-0.153-0.157c0.111-0.084,0.245-0.142,0.395-0.161v0.219h0.234v-0.219
								c0.146,0.019,0.28,0.077,0.391,0.161l-0.154,0.157l0.169,0.165l0.154-0.154c0.084,0.111,0.142,0.246,0.161,0.391h-0.219
								v0.238H122.444z"/>
						</g>
						<g>
							<path style="fill:#FFFFFF;" d="M83.7,211.68c-0.023,0.146-0.081,0.28-0.165,0.391l-0.153-0.153l-0.169,0.165l0.154,0.157
								c-0.092,0.069-0.2,0.123-0.318,0.146h-0.073v-0.203H82.74v0.203h-0.088c-0.115-0.027-0.219-0.077-0.307-0.146l0.153-0.157
								l-0.165-0.165l-0.154,0.153c-0.088-0.111-0.146-0.246-0.165-0.391h0.219v-0.238h-0.219c0.019-0.146,0.077-0.28,0.161-0.391
								l0.157,0.153l0.165-0.165l-0.153-0.157c0.111-0.084,0.246-0.142,0.395-0.161v0.219h0.234v-0.219
								c0.146,0.019,0.28,0.077,0.391,0.161l-0.154,0.157l0.169,0.165l0.153-0.153c0.084,0.111,0.142,0.246,0.161,0.391h-0.219
								v0.238H83.7z"/>
							<path style="fill:#FFFFFF;" d="M122.444,211.68c-0.023,0.146-0.081,0.28-0.165,0.391l-0.154-0.153l-0.169,0.165l0.154,0.157
								c-0.092,0.069-0.2,0.123-0.319,0.146h-0.073v-0.203h-0.234v0.203h-0.088c-0.115-0.027-0.219-0.077-0.307-0.146l0.153-0.157
								l-0.165-0.165l-0.153,0.153c-0.088-0.111-0.146-0.246-0.165-0.391h0.219v-0.238h-0.219c0.019-0.146,0.077-0.28,0.161-0.391
								l0.157,0.153l0.165-0.165l-0.153-0.157c0.111-0.084,0.245-0.142,0.395-0.161v0.219h0.234v-0.219
								c0.146,0.019,0.28,0.077,0.391,0.161l-0.154,0.157l0.169,0.165l0.154-0.153c0.084,0.111,0.142,0.246,0.161,0.391h-0.219
								v0.238H122.444z"/>
						</g>
					</g>
					<path style="fill:#53CAB6;" d="M108.859,194.048c-1.191,0-2.155,0.964-2.155,2.155c0,0.653,0.288,1.245,0.751,1.632
						c0.372,0.326,0.873,0.524,1.404,0.524c0.531,0,1.032-0.197,1.404-0.524c0.463-0.387,0.751-0.979,0.751-1.632
						C111.014,195.012,110.05,194.048,108.859,194.048z M110.195,197.213l-0.304-0.304l-0.326,0.326l0.303,0.311
						c-0.182,0.137-0.395,0.243-0.637,0.288c-0.046,0.015-0.091,0.023-0.144,0.03v-0.433h-0.463v0.44
						c-0.061-0.008-0.114-0.023-0.175-0.038c-0.22-0.053-0.425-0.159-0.6-0.288l0.304-0.311l-0.334-0.326l-0.304,0.304
						c-0.167-0.22-0.281-0.486-0.326-0.774h0.44v-0.471h-0.433c0.038-0.288,0.152-0.554,0.319-0.774l0.304,0.304l0.334-0.326
						l-0.304-0.311c0.22-0.167,0.486-0.281,0.774-0.319v0.433h0.463v-0.433c0.296,0.038,0.562,0.152,0.782,0.319l-0.303,0.311
						l0.326,0.326l0.311-0.304c0.167,0.22,0.281,0.486,0.319,0.774h-0.433v0.471h0.433
						C110.483,196.727,110.369,196.993,110.195,197.213z"/>
					<polygon style="fill:#305073;" points="118.716,214.593 84.984,214.593 89.537,206.651 114.922,206.651 					"/>
					<g>
						<g>
							<circle style="fill:#233B54;" cx="90.845" cy="211.554" r="0.833"/>
							<circle style="fill:#233B54;" cx="95.14" cy="209.39" r="0.833"/>
						</g>
						<g>
							<circle style="fill:#233B54;" cx="112.855" cy="211.554" r="0.833"/>
							<path style="fill:#233B54;" d="M107.727,209.39c0,0.46,0.373,0.833,0.833,0.833c0.46,0,0.833-0.373,0.833-0.833
								s-0.373-0.833-0.833-0.833C108.1,208.557,107.727,208.93,107.727,209.39z"/>
						</g>
					</g>
				</g>
			</g>
			<g>
				<circle style="fill:#F3F3F3;" cx="339.515" cy="75.976" r="38.487"/>
				<g>
					<path style="fill:#233B54;" d="M361.298,75.976c0,5.941-2.378,11.331-6.238,15.256c-0.317-7.503-2.301-22.199-12.77-27.675
						c3.554-2.966,7.223-4.728,9.438-5.621C357.504,61.853,361.298,68.471,361.298,75.976z"/>
					<path style="fill:#47AD9C;" d="M355.06,91.233c-2.076,2.118-4.582,3.811-7.374,4.942c-0.916-2.452-2.027-5.301-3.183-8.205
						c-1.387-3.483-2.841-7.043-4.1-10.103c-1.993-4.848-3.503-8.43-3.503-8.43c1.602-2.341,3.48-4.285,5.39-5.878
						C352.759,69.033,354.743,83.73,355.06,91.233z"/>
					<path style="fill:#233B54;" d="M340.403,77.866c-7.719,4.454-16.906,3.511-22.228,2.501c-0.291-1.419-0.443-2.886-0.443-4.391
						c0-2.589,0.451-5.076,1.282-7.38c2.792-0.183,5.964-0.117,8.856,0.04c4.925,0.268,9.03,0.799,9.03,0.799
						S338.41,73.019,340.403,77.866z"/>
					<path style="fill:#FF5255;" d="M339.104,54.197c-4.028,2.261-9.607,6.695-11.234,14.44c-2.892-0.157-6.064-0.223-8.856-0.04
						C321.995,60.32,329.843,54.368,339.104,54.197z"/>
					<path style="fill:#FFFFFF;" d="M351.728,57.937c-2.215,0.894-5.884,2.655-9.438,5.621c-1.91,1.593-3.788,3.537-5.39,5.878
						c0,0-4.105-0.531-9.03-0.799c1.627-7.745,7.206-12.179,11.234-14.44h0.003c0.137-0.003,0.271-0.003,0.408-0.003
						C344.04,54.194,348.245,55.576,351.728,57.937z"/>
					<path style="fill:#FFFFFF;" d="M344.503,87.97c-5.233,4.885-14.229,4.608-19.73,4.04c-3.303-3.035-5.664-7.08-6.598-11.642
						c5.321,1.011,14.508,1.953,22.228-2.501C341.662,80.927,343.115,84.487,344.503,87.97z"/>
					<path style="fill:#FF5255;" d="M347.686,96.174c-2.524,1.022-5.281,1.585-8.171,1.585c-5.687,0-10.863-2.178-14.742-5.75
						c5.501,0.568,14.497,0.845,19.73-4.04C345.659,90.873,346.77,93.722,347.686,96.174z"/>
					
						<line style="fill:none;stroke:#7D5442;stroke-width:0.2855;stroke-miterlimit:10;" x1="340.406" y1="77.866" x2="340.403" y2="77.866"/>
				</g>
			</g>
			<g>
				
					<ellipse transform="matrix(0.7071 -0.7071 0.7071 0.7071 -120.1884 354.7541)" style="fill:#F3F3F3;" cx="368.132" cy="322.457" rx="38.487" ry="38.487"/>
				<g>
					<g>
						<path style="fill:#FF5255;" d="M352.37,315.64c0,0-3.797-1.532-2.947-2.524S352.37,315.64,352.37,315.64z"/>
						<path style="fill:#FF5255;" d="M349.423,313.116c0.85-0.992,2.947,2.524,2.947,2.524S348.573,314.108,349.423,313.116"/>
						<path style="fill:#FF5255;" d="M351.474,311.864c1.271-0.302,0.896,3.775,0.896,3.775S350.202,312.166,351.474,311.864"/>
						<path style="fill:#FF5255;" d="M353.868,312.06c1.205,0.504-1.498,3.579-1.498,3.579S352.663,311.556,353.868,312.06"/>
					</g>
					<g>
						<path style="fill:#FF5255;" d="M383.117,307.458c0,0-3.797-1.532-2.947-2.524C381.02,303.942,383.117,307.458,383.117,307.458
							z"/>
						<path style="fill:#FF5255;" d="M380.17,304.934c0.85-0.993,2.947,2.524,2.947,2.524S379.32,305.927,380.17,304.934"/>
						<path style="fill:#FF5255;" d="M382.22,303.683c1.271-0.302,0.896,3.775,0.896,3.775S380.949,303.985,382.22,303.683"/>
						<path style="fill:#FF5255;" d="M384.615,303.879c1.205,0.504-1.498,3.579-1.498,3.579S383.409,303.374,384.615,303.879"/>
					</g>
					<g>
						<path style="fill:#FF5255;" d="M366.24,299.552c0,0-5.456-2.201-4.235-3.627C363.227,294.499,366.24,299.552,366.24,299.552z"
							/>
						<path style="fill:#FF5255;" d="M362.005,295.925c1.221-1.426,4.235,3.627,4.235,3.627S360.784,297.351,362.005,295.925"/>
						<path style="fill:#FF5255;" d="M364.952,294.127c1.827-0.434,1.288,5.425,1.288,5.425S363.126,294.56,364.952,294.127"/>
						<path style="fill:#FF5255;" d="M368.393,294.408c1.732,0.725-2.153,5.143-2.153,5.143S366.661,293.683,368.393,294.408"/>
					</g>
					<g>
						<g>
							<path style="fill:#47AD9C;" d="M378.86,323.348c-2.078,0-3.603-0.07-4.716-0.171c0,10.63-1.019,20.614-1.019,20.614h-7.751
								c0.101-0.07-0.031-0.763-0.311-1.922c1.743-0.405,4.467-1.471,5.875-4.436c1.984-4.171-3.377-14.902,1.922-15.758
								c5.299-0.864,7.478-0.132,10.397-3.774c2.91-3.642,1.541-11.323-3.696-9.805c2.07-2.358,4.724-2.412,6.381,0.739
								C388.416,313.558,386.533,323.348,378.86,323.348z"/>
							<path style="fill:#47AD9C;" d="M359.748,325.021c-4.374-0.965-4.311-5.401-6.825-7.385c-1.463-1.159-2.599,0.047-3.284,1.253
								c0.132-1.494,0.661-2.755,1.58-3.377c3.362-2.257,4.848,1.868,6.233,5.626c0.584,1.588,2,2.093,3.432,2.156
								C360.884,323.293,364.113,325.978,359.748,325.021z"/>
							<path style="fill:#53CAB6;" d="M383.257,317.9c-2.918,3.642-5.097,2.911-10.397,3.774
								c-5.299,0.856,0.062,11.587-1.922,15.758c-1.409,2.965-4.132,4.031-5.875,4.436c-0.661-2.77-2.179-8.241-3.408-14.404
								c-1.206,0.226-2.801,0.428-4.895,0.591c-5.066,0.389-7.471-5.206-7.12-9.167c0.685-1.206,1.821-2.412,3.284-1.253
								c2.513,1.984,2.451,6.42,6.825,7.385c4.366,0.957,1.136-1.728,1.136-1.728c-1.767-10.685-2.039-22.093,4.49-24.801
								c0.265-0.109,0.521-0.195,0.77-0.257c1.65,1.58,4.303,5.237,4.724,11.517c0.156,2.257,0.062,4.545,0.615,6.77
								c0.226,0.91,0.584,2.218,1.541,2.638c0.988,0.428,1.907-0.156,2.374-1.012c0.412-0.747,0.7-1.65,0.879-2.599
								c0.008-0.008,0.008-0.008,0.008-0.008c0.296-0.638,0.568-1.409,0.802-2.342c0.553-2.194,1.44-3.93,2.475-5.105
								C384.798,306.578,386.167,314.258,383.257,317.9z"/>
							<path style="fill:#47AD9C;" d="M376.276,315.55c-0.179,0.949-0.467,1.852-0.879,2.599c-0.467,0.856-1.385,1.44-2.374,1.012
								c-0.957-0.42-1.315-1.728-1.541-2.638c-0.552-2.226-0.459-4.514-0.615-6.77c-0.42-6.28-3.074-9.938-4.724-11.517
								c5.665-1.447,7.525,8.755,7.914,19.867C374.798,317.737,375.607,316.99,376.276,315.55z"/>
							<path style="fill:#5CE0CA;" d="M365.762,309.439c-0.477,4.308-1.884,7.688-3.144,7.548c-1.26-0.139-1.894-3.745-1.418-8.053
								c0.477-4.308,1.884-7.688,3.144-7.548C365.604,301.526,366.239,305.131,365.762,309.439z"/>
							<path style="fill:#5CE0CA;" d="M382.597,313.841c-0.633,2.313-2.138,3.916-3.36,3.581c-1.222-0.335-1.7-2.481-1.066-4.793
								c0.633-2.313,2.138-3.916,3.36-3.581C382.753,309.383,383.23,311.529,382.597,313.841z"/>
							<path style="fill:#5CE0CA;" d="M353.699,321.48c0.666,1.513,0.558,3.024-0.242,3.376c-0.799,0.352-1.988-0.589-2.654-2.101
								c-0.666-1.513-0.558-3.024,0.242-3.376C351.844,319.026,353.033,319.967,353.699,321.48z"/>
							<path style="fill:#5CE0CA;" d="M365.308,320.547c0,0.805-0.652,1.457-1.457,1.457c-0.805,0-1.457-0.652-1.457-1.457
								c0-0.805,0.652-1.457,1.457-1.457C364.655,319.09,365.308,319.742,365.308,320.547z"/>
						</g>
						<g>
							<polygon style="fill:#C77F62;" points="374.643,350.811 363.484,350.811 360.371,335.909 377.756,335.909 							"/>
							<rect x="359.323" y="335.214" style="fill:#C77F62;" width="19.48" height="4.073"/>
							<polygon style="fill:#BD7154;" points="361.076,339.287 377.05,339.287 376.411,342.347 							"/>
						</g>
					</g>
				</g>
			</g>
			<g>
				
					<ellipse transform="matrix(0.9874 -0.1583 0.1583 0.9874 -26.5185 65.4724)" style="fill:#F3F3F3;" cx="397.77" cy="199.217" rx="38.487" ry="38.487"/>
				<g>
					<g>
						<g>
							<path style="fill:#BD7154;" d="M423.761,179.314c0,0,4.547,6.244-0.077,16.715c0,0-12.009-4.582-12.46-6.042
								C410.773,188.527,419.445,177.189,423.761,179.314z"/>
							<path style="fill:#C77F62;" d="M423.602,180.915c0.086,0.214,0.128,0.454,0.138,0.682c0.104,2.518,0.34,5.036,0.284,7.565
								c-0.02,0.897,0.165,4.337-1.115,4.643c-1.995,0.471-6.734-2.789-7.531-4.757c-0.697-1.723,1.572-4.641,2.547-5.837
								c0.858-1.052,3.615-3.504,5.106-2.919C423.307,180.4,423.49,180.636,423.602,180.915z"/>
							<path style="fill:#DB8C6C;" d="M422.341,183.169c0,0,1.256,7.427,0.413,7.649c-0.843,0.222-1.554-2.286-1.677-4.12
								C420.955,184.865,421.475,181.289,422.341,183.169z"/>
							<path style="fill:#BD7154;" d="M423.684,196.03c0,0,2.24,3.471-0.174,6.919c-2.414,3.448-3.324,4.368-5.244,4.002
								c-1.92-0.366-17.129-10.2-15.081-12.813c2.048-2.612,6.519-5.758,8.582-4.54C413.829,190.815,423.684,196.03,423.684,196.03z
								"/>
							<path style="fill:#C77F62;" d="M421.977,196.437c0,0,1.82,2.82-0.141,5.621c-1.961,2.801-2.7,3.549-4.26,3.252
								c-1.56-0.297-13.917-8.287-12.253-10.41c1.664-2.122,5.297-4.678,6.972-3.689C413.971,192.2,421.977,196.437,421.977,196.437
								z"/>
							<path style="fill:#DB8C6C;" d="M419.635,196.895c0.247,0.175,2.745,1.07,1.681,3.645c-1.064,2.576-2.992,4.465-3.996,3.594
								c-1.004-0.872,2.933-4.271,1.955-5.488C418.296,197.429,418.549,196.125,419.635,196.895z"/>
						</g>
						<g>
							<path style="fill:#BD7154;" d="M369.782,204.201c0,0,1.795,7.512,12.761,10.796c0,0,4.314-12.108,3.497-13.399
								C385.222,200.307,370.969,199.539,369.782,204.201z"/>
							<path style="fill:#C77F62;" d="M371.103,205.119c0.108,0.204,0.262,0.393,0.429,0.548c1.847,1.714,3.609,3.529,5.568,5.129
								c0.695,0.568,3.191,2.942,4.255,2.167c1.654-1.211,2.253-6.932,1.273-8.816c-0.857-1.649-4.551-1.818-6.093-1.854
								c-1.357-0.03-5.012,0.473-5.536,1.987C370.903,204.561,370.963,204.854,371.103,205.119z"/>
							<path style="fill:#DB8C6C;" d="M373.635,205.625c0,0,4.832,5.778,5.549,5.281c0.716-0.497-0.729-2.666-2.044-3.951
								C375.825,205.672,372.769,203.745,373.635,205.625z"/>
							<path style="fill:#BD7154;" d="M382.543,214.997c0,0,1.185,3.957,5.374,4.361c4.189,0.404,5.48,0.309,6.449-1.389
								c0.969-1.698,3.367-19.65,0.05-19.789c-3.317-0.139-8.612,1.218-9.026,3.577
								C384.978,204.117,382.543,214.997,382.543,214.997z"/>
							<path style="fill:#C77F62;" d="M383.961,213.964c0,0,0.963,3.215,4.366,3.543c3.404,0.328,4.452,0.251,5.239-1.128
								c0.787-1.379,2.736-15.965,0.041-16.078c-2.695-0.113-6.997,0.99-7.333,2.906
								C385.939,205.124,383.961,213.964,383.961,213.964z"/>
							<path style="fill:#DB8C6C;" d="M385.831,212.481c-0.027,0.302-0.969,2.782,1.681,3.645c2.65,0.863,5.339,0.624,5.328-0.705
								c-0.011-1.329-5.153-0.543-5.443-2.077C387.106,211.809,385.951,211.154,385.831,212.481z"/>
						</g>
						<g>
							<path style="fill:#BD7154;" d="M420.033,206.803c0,0,1.936,2.027-0.261,5.042c-2.196,3.014-17.482,11.646-22.216,10.243
								c-4.734-1.404-5.275-22.838-2.968-25.069c2.307-2.231,6.567-4.419,8.597-2.879S420.033,206.803,420.033,206.803z"/>
							<path style="fill:#C77F62;" d="M416.702,207.169c0,0,1.576,1.747-0.056,4.195c-1.632,2.448-13.352,9.194-17.102,7.885
								c-3.75-1.309-4.804-19.194-3.063-20.986c1.742-1.792,5.015-3.49,6.65-2.147S416.702,207.169,416.702,207.169z"/>
							<path style="fill:#DB8C6C;" d="M415.437,209.859c-0.259,0.63-0.967,0.993-1.622,1.449c-1.898,1.323-3.737,2.714-5.709,3.93
								c-1.554,0.958-4.321,3.023-6.302,2.555c-2.87-0.678,9.82-6.196,9.024-8.164s-5.461-3.483-2.462-5.099
								c1.737-0.936,3.873,0.658,5.095,1.779c0.722,0.662,1.844,1.594,2.045,2.674C415.57,209.329,415.537,209.615,415.437,209.859z
								"/>
						</g>
					</g>
					<path style="fill:#FF5255;" d="M401.407,179.298c0,0.17-0.01,0.345-0.029,0.511c-0.321,2.602-2.977,4.792-5.249,6.178
						c-0.156,0.097-0.311,0.185-0.462,0.277h-0.005c-0.151-0.092-0.306-0.18-0.462-0.277c-2.272-1.386-4.928-3.576-5.249-6.178
						c-0.019-0.165-0.029-0.341-0.029-0.511c0-1.712,1.387-3.104,3.104-3.104c1.114,0,2.097,0.589,2.642,1.479
						c0.54-0.89,1.523-1.479,2.637-1.479C400.02,176.194,401.407,177.585,401.407,179.298z"/>
				</g>
				<path style="fill:#FF5255;" d="M389.461,188.448c0,0.098-0.006,0.2-0.017,0.295c-0.186,1.504-1.72,2.768-3.032,3.569
					c-0.09,0.056-0.18,0.107-0.267,0.16h-0.003c-0.087-0.053-0.177-0.104-0.267-0.16c-1.313-0.801-2.847-2.066-3.033-3.569
					c-0.011-0.095-0.017-0.197-0.017-0.295c0-0.989,0.801-1.793,1.793-1.793c0.644,0,1.211,0.34,1.526,0.854
					c0.312-0.514,0.88-0.854,1.523-0.854C388.66,186.655,389.461,187.459,389.461,188.448z"/>
			</g>
			<g>
				<circle style="fill:#F3F3F3;" cx="160.485" cy="75.976" r="38.487"/>
				<g>
					<path style="fill:#192B3D;" d="M173.065,96.631h-25.162c-1.907,0-3.452-1.546-3.452-3.452V58.775
						c0-1.907,1.546-3.452,3.452-3.452h25.162c1.907,0,3.452,1.546,3.452,3.452v34.404
						C176.518,95.085,174.972,96.631,173.065,96.631z"/>
					<path style="fill:#53CAB6;" d="M172.808,94.78h-24.646c-1.148,0-2.078-0.931-2.078-2.078V59.251
						c0-1.148,0.931-2.078,2.078-2.078h24.646c1.148,0,2.078,0.931,2.078,2.078v33.451C174.886,93.85,173.956,94.78,172.808,94.78z"
						/>
					<g>
						<defs>
							<path id="SVGID_1_" d="M172.808,94.78h-24.646c-1.148,0-2.078-0.931-2.078-2.078V59.251c0-1.148,0.931-2.078,2.078-2.078
								h24.646c1.148,0,2.078,0.931,2.078,2.078v33.451C174.886,93.85,173.956,94.78,172.808,94.78z"/>
						</defs>
						<clipPath id="SVGID_00000093879556203950493690000000574709795776442295_">
							<use xlink:href="#SVGID_1_"  style="overflow:visible;"/>
						</clipPath>
						<g style="clip-path:url(#SVGID_00000093879556203950493690000000574709795776442295_);">
							<polyline style="fill:none;stroke:#FFFFFF;stroke-width:0.7246;stroke-miterlimit:10;" points="162.66,54.891 162.66,64.604 
								182.086,79.682 							"/>
							<polyline style="fill:none;stroke:#FFFFFF;stroke-width:0.7246;stroke-miterlimit:10;" points="165.62,96.518 165.62,78.85 
								138.053,78.85 							"/>
							
								<line style="fill:none;stroke:#FFFFFF;stroke-width:0.7246;stroke-miterlimit:10;" x1="162.66" y1="64.604" x2="138.608" y2="64.604"/>
							
								<line style="fill:none;stroke:#FFFFFF;stroke-width:0.7246;stroke-miterlimit:10;" x1="165.62" y1="78.85" x2="172.373" y2="72.143"/>
							
								<line style="fill:none;stroke:#FFFFFF;stroke-width:0.7246;stroke-miterlimit:10;" x1="152.947" y1="64.604" x2="152.947" y2="78.85"/>
							
								<line style="fill:none;stroke:#FFFFFF;stroke-width:0.7246;stroke-miterlimit:10;" x1="165.62" y1="86.62" x2="177.831" y2="86.62"/>
							<polyline style="fill:none;stroke:#FFFFFF;stroke-width:0.7246;stroke-miterlimit:10;" points="144.529,95.181 
								157.85,86.158 157.85,78.85 							"/>
						</g>
					</g>
					<path style="fill:#FF5255;" d="M160.485,64.604c-1.726,0-3.125,1.399-3.125,3.125c0,0.227,0.027,0.448,0.073,0.661
						c0.512,3.398,3.052,6.399,3.052,6.399c2.243-2.608,2.877-5.229,3.055-6.41c0.007-0.032,0.008-0.066,0.014-0.099
						c0.049-0.349,0.056-0.552,0.056-0.552C163.61,66.003,162.211,64.604,160.485,64.604z M160.485,68.959
						c-0.679,0-1.23-0.551-1.23-1.23s0.55-1.23,1.23-1.23s1.23,0.551,1.23,1.23S161.164,68.959,160.485,68.959z"/>
				</g>
			</g>
		</g>
		<g>
			<ellipse style="fill:#F3F3F3;" cx="250" cy="443.49" rx="98.957" ry="19.02"/>
			<g>
				<path style="fill:#FFA8AA;" d="M235.481,137.051c1.229-5.422,1.001-12.043,1.001-12.043c2.022,0.258,20.746-2.022,20.746-2.022
					s-0.753,7.84,1.269,12.142c0.129,0.268,0.248,0.535,0.387,0.803c-1.665,0.793-3.935,1.794-8.564,2.24
					C243.49,138.816,237.939,137.686,235.481,137.051z"/>
				<path style="fill:#FFA8AA;" d="M191.382,183.727c5.204,6.116,12.677,14.432,17.138,19.021
					c-5.749,12.39-14.67,28.279-22.154,27.03c-12.142-2.022-27.019-54.379-27.019-54.379l8.553-3.319l18.724,29.102
					C186.624,201.182,188.537,193.203,191.382,183.727z"/>
				<path style="fill:#FFA8AA;" d="M349.093,174.866c0,12.152-18.724,12.4-41.502,9.109c-5.134-0.743-9.278-1.606-12.618-2.508
					c5.561-12.152,5.69-23.293,4.976-30.044c15.185,6.364,30.678,13.946,30.678,13.946l-8.098-37.834l8.098-4.55
					C330.627,122.986,349.093,162.724,349.093,174.866z"/>
				<path style="fill:#47AD9C;" d="M268.706,143.316c0,0-5.402,8.177-20.419,7.166c-15.017-1.011-18.01-6.066-18.01-6.066
					s0.634-7.256,3.836-7.761c0,0,0.486,0.169,1.368,0.396c2.458,0.634,8.009,1.764,14.838,1.12c4.629-0.446,6.899-1.447,8.564-2.24
					c1.675-0.803,2.726-1.398,4.926-0.971C268.201,135.803,268.706,143.316,268.706,143.316z"/>
				<path style="fill:#FF8A8C;" d="M257.228,122.986l-20.746,2.022l-0.249,7.096C236.233,132.104,252.163,135.304,257.228,122.986z"
					/>
				<path style="fill:#233B54;" d="M211.424,224.971c0,0-9.363,15.271-14.424,34.167c-5.061,18.896,9.363,83.008,7.212,95.662
					c-2.151,12.654-1.97,53.146-0.542,78.453h14.588c0,0,10.123-52.639,11.135-70.355c1.012-17.715,7.592-86.551,7.592-86.551
					s22.439,52.302,36.611,69.511c0,0-2.362,34.418-2.362,44.541c0,10.123,2.362,42.854,2.362,42.854h15.016
					c0,0,11.641-76.597,12.991-88.07c1.35-11.473-22.271-56.014-26.657-75.247c-4.387-19.234-3.416-43.652-4.437-43.37
					C269.489,226.849,231.585,226.235,211.424,224.971z"/>
				<polygon style="fill:#192B3D;" points="236.986,276.347 238.251,259.645 245.357,294.93 				"/>
				
					<polyline style="fill:none;stroke:#305073;stroke-width:0.4956;stroke-linecap:round;stroke-linejoin:round;stroke-miterlimit:10;" points="
					242.283,228.593 241.172,248.256 238.251,245.219 238.926,233.747 				"/>
				<g>
					<g>
						<path style="fill:none;stroke:#305073;stroke-width:0.4956;stroke-linecap:round;stroke-linejoin:round;" d="M213.45,229.848
							c0,0-0.168,0.304-0.466,0.871"/>
						
							<path style="fill:none;stroke:#305073;stroke-width:0.4956;stroke-linecap:round;stroke-linejoin:round;stroke-dasharray:2.0006,2.0006;" d="
							M212.073,232.497c-3.402,6.791-11.885,25.359-11.277,40.561c0.759,18.98,7.845,59.725,7.845,74.91
							c0,13.589-1.229,66.294-1.487,77.222"/>
						<path style="fill:none;stroke:#305073;stroke-width:0.4956;stroke-linecap:round;stroke-linejoin:round;" d="M207.131,426.192
							c-0.015,0.643-0.023,0.987-0.023,0.987"/>
					</g>
				</g>
				<polygon style="fill:#FF8A8C;" points="330.627,165.37 336.022,172.081 329.159,158.512 				"/>
				<polygon style="fill:#FF8A8C;" points="186.624,201.182 189.745,211.054 187.967,195.89 				"/>
				<path style="fill:#FFA8AA;" d="M252.299,83.558c4.82,5.208,5.768,12.784,6.632,19.687c2.028,16.197,0.679,25.476-12.481,26.151
					c-16.862,0.865-25.618-21.691-24.897-35.622c0.317-6.122,3.789-12.023,9.389-14.705c6.237-2.987,13.961-1.536,19.315,2.617
					C251.005,82.267,251.684,82.893,252.299,83.558z"/>
				<path style="fill:#53CAB6;" d="M281.611,175.015c7.959,13.332,1.665,23.174-2.864,31.738c-4.56,8.604-8.237,19.813-8.237,19.813
					c-16.95,9.863-59.086-1.595-59.086-1.595s1.774-6.076,3.291-14.68c1.517-8.604-0.258-21.658-0.258-21.658
					s-2.349,6.373-5.937,14.115c-4.461-4.589-11.934-12.906-17.138-19.021c3.558-11.805,8.574-25.93,13.213-29.865
					c7.305-6.205,19.666-6.978,25.682-9.446c0,0,2.993,5.055,18.01,6.066c15.017,1.011,20.419-7.166,20.419-7.166
					c1.11,0.04,2.339-0.06,3.707-0.337c3.896-0.783,15.622,3.449,27.536,8.445c0.714,6.75,0.585,17.891-4.976,30.044
					C284.853,178.722,282.117,175.689,281.611,175.015z"/>
				<polygon style="fill:#47AD9C;" points="282.73,177.047 276.128,166.851 288.613,179.365 				"/>
				<polygon style="fill:#47AD9C;" points="214.457,188.634 218.933,178.323 215.134,195.89 				"/>
				<path style="fill:#BD7154;" d="M245.829,83.168c0,0-10.878,0.506-13.625,5.905s3.483,14.148-1.374,20.077
					c-4.857,5.929,8.989,8.71,7.5,39.585c0,0-7.5,4.534-18.832,1.834c-11.333-2.699-0.515-25.56-2.404-34.502
					c-1.889-8.942-1.277-24.295,3.998-32.9c5.275-8.604,15.749-9.954,21.244-8.267c0,0,9.715-3.206,16.791,6.917
					c7.076,10.123,8.45,25.982,8.793,38.467c0.343,12.485,9.85,21.4,7.96,22.75c-1.891,1.35-7.617,8.737-12.253,9.581
					c-4.636,0.844-7.153-2.513-7.153-2.513s-1.195-21.324,0.968-32.179c2.163-10.855-2.4-25.476-5.491-29.863
					C248.86,83.674,245.829,83.168,245.829,83.168z"/>
				<g>
					<g>
						<path style="fill:#FFA8AA;" d="M331.136,123.237c0,0,0.339-4.002,0-6.445s-0.611-9.769-6.58-7.598c0,0-3.46-1.832-4.342,0.407
							c0,0-3.731-1.357-4.274,1.085c0,0-2.985-1.153-3.053,1.221c-0.068,2.374,1.832,4.274,1.967,5.563
							c0.136,1.289-6.852,0.407-9.837,3.053c-2.985,2.646,2.442,1.357,6.173,1.967c3.731,0.61,8.276,0.271,9.905,2.646
							c1.628,2.374,1.56,3.731,2.239,3.731c0.678,0,7.56-2.646,7.952-3.256C331.679,125.001,331.136,123.237,331.136,123.237z"/>
						<g>
							<path style="fill:#FF8A8C;" d="M314.814,117.248c0.577,0.457,1.259,0.855,1.966,0.865c0.349,0.008,0.677-0.121,0.933-0.342
								c0.269-0.208,0.445-0.524,0.61-0.832c0.053-0.098,0.174-0.135,0.273-0.084l0.011,0.006c0.515,0.268,1.106,0.494,1.66,0.5
								c0.277,0.001,0.537-0.064,0.745-0.205c0.212-0.14,0.342-0.381,0.456-0.627c0.062-0.135,0.221-0.194,0.356-0.132l0.022,0.011
								c0.418,0.241,0.958,0.371,1.385,0.241c0.212-0.07,0.415-0.187,0.564-0.381c0.161-0.179,0.274-0.411,0.378-0.647l0.004-0.008
								c0.055-0.126,0.202-0.183,0.327-0.128l0.01,0.005c0.5,0.246,1.063,0.459,1.598,0.504c0.264,0.025,0.526-0.003,0.689-0.141
								c0.167-0.138,0.228-0.379,0.255-0.678c0.064-0.573,0.01-1.162,0.037-1.767c0.014-0.3,0.047-0.613,0.175-0.898
								c0.121-0.29,0.373-0.502,0.645-0.617c-0.555,0.305-0.669,0.945-0.615,1.514c0.044,0.582,0.126,1.179,0.099,1.793
								c-0.009,0.282-0.046,0.682-0.33,0.949c-0.285,0.266-0.666,0.308-0.983,0.298c-0.653-0.046-1.226-0.257-1.794-0.519
								l0.341-0.131c-0.114,0.277-0.242,0.557-0.449,0.801c-0.19,0.254-0.482,0.45-0.794,0.555c-0.317,0.105-0.655,0.106-0.96,0.037
								c-0.31-0.071-0.584-0.178-0.863-0.349l0.378-0.121c-0.148,0.314-0.335,0.638-0.655,0.846
								c-0.313,0.207-0.686,0.282-1.031,0.272c-0.699-0.024-1.304-0.29-1.864-0.636l0.283-0.079
								c-0.206,0.334-0.424,0.675-0.765,0.91c-0.321,0.243-0.746,0.383-1.146,0.333C315.97,118.258,315.321,117.789,314.814,117.248
								z"/>
						</g>
						<g>
							<path style="fill:#FF8A8C;" d="M324.555,109.195c-0.089,1.117-0.233,2.194-0.295,3.275c-0.072,1.083-0.086,2.141,0.143,3.238
								c-0.322-0.466-0.493-1.023-0.597-1.581c-0.112-0.561-0.106-1.13-0.081-1.692c0.04-0.562,0.124-1.119,0.266-1.661
								C324.131,110.232,324.298,109.697,324.555,109.195z"/>
						</g>
						<g>
							<path style="fill:#FF8A8C;" d="M320.214,109.602c0.032,1.235,0.133,2.426,0.378,3.594c0.108,0.586,0.271,1.159,0.454,1.729
								c0.172,0.577,0.43,1.119,0.66,1.698c-0.846-0.907-1.398-2.095-1.64-3.321c-0.118-0.615-0.187-1.241-0.156-1.865
								C319.933,110.815,320.011,110.191,320.214,109.602z"/>
						</g>
						<g>
							<path style="fill:#FF8A8C;" d="M315.94,110.687c0.397,1.112,0.708,2.221,1.067,3.31c0.174,0.546,0.373,1.078,0.584,1.605
								c0.223,0.521,0.476,1.027,0.91,1.428c-0.568-0.216-0.973-0.735-1.277-1.238c-0.314-0.513-0.536-1.069-0.727-1.628
								c-0.174-0.565-0.324-1.136-0.412-1.718C315.991,111.865,315.925,111.28,315.94,110.687z"/>
						</g>
					</g>
				</g>
				<g>
					<g>
						<path style="fill:#FFA8AA;" d="M158.85,175.413c0,0-3.061-2.601-4.541-4.574c-1.48-1.972-6.449-7.363-0.683-10.028
							c0,0,1.165-3.737,3.368-2.77c0,0,1.692-3.592,3.798-2.241c0,0,1.306-2.921,3.027-1.284c1.721,1.637,1.711,4.324,2.523,5.334
							s5.149-4.538,9.132-4.764s-0.777,2.684-2.995,5.745s-5.682,6.024-5.165,8.856s1.521,3.747,1.04,4.225
							c-0.481,0.478-7.229,3.449-7.938,3.292C159.707,177.047,158.85,175.413,158.85,175.413z"/>
						<g>
							<path style="fill:#FF8A8C;" d="M166.213,159.663c0.022,0.741-0.108,1.531-0.6,2.169c-0.249,0.318-0.648,0.517-1.048,0.571
								c-0.407,0.073-0.803-0.015-1.184-0.107l0.256-0.144c-0.153,0.64-0.396,1.255-0.875,1.764
								c-0.238,0.249-0.555,0.459-0.923,0.533c-0.374,0.078-0.734-0.02-1.061-0.139l0.353-0.18
								c-0.077,0.318-0.196,0.587-0.366,0.856c-0.168,0.264-0.409,0.501-0.707,0.65c-0.296,0.146-0.641,0.212-0.955,0.166
								c-0.319-0.027-0.607-0.135-0.883-0.252l0.334-0.147c-0.218,0.586-0.477,1.139-0.907,1.632
								c-0.218,0.231-0.517,0.469-0.907,0.481c-0.39,0.01-0.698-0.247-0.903-0.441c-0.451-0.417-0.815-0.899-1.193-1.343
								c-0.362-0.442-0.893-0.816-1.503-0.641c0.274-0.11,0.602-0.138,0.893-0.017c0.291,0.112,0.535,0.311,0.757,0.514
								c0.445,0.411,0.822,0.867,1.271,1.228c0.23,0.193,0.443,0.321,0.659,0.301c0.213-0.016,0.418-0.181,0.588-0.385
								c0.348-0.408,0.598-0.956,0.779-1.483c0.045-0.13,0.186-0.199,0.316-0.154l0.009,0.003l0.009,0.004
								c0.24,0.095,0.484,0.18,0.725,0.193c0.242,0.032,0.469-0.027,0.669-0.127c0.395-0.208,0.687-0.682,0.814-1.147
								c0.039-0.143,0.187-0.227,0.33-0.188l0.024,0.008c0.254,0.094,0.516,0.173,0.765,0.123c0.247-0.046,0.478-0.183,0.673-0.379
								c0.389-0.395,0.649-0.971,0.826-1.524l0.004-0.011c0.034-0.106,0.147-0.165,0.253-0.133c0.334,0.102,0.681,0.202,1.019,0.16
								c0.337-0.023,0.66-0.163,0.903-0.415C165.922,161.157,166.126,160.395,166.213,159.663z"/>
						</g>
						<g>
							<path style="fill:#FF8A8C;" d="M153.626,160.811c0.536,0.175,1.033,0.437,1.513,0.723c0.483,0.284,0.935,0.62,1.359,0.991
								c0.414,0.382,0.82,0.781,1.135,1.258c0.318,0.469,0.59,0.985,0.69,1.543c-0.61-0.939-1.366-1.681-2.18-2.398
								C155.337,162.204,154.476,161.542,153.626,160.811z"/>
						</g>
						<g>
							<path style="fill:#FF8A8C;" d="M156.994,158.041c0.559,0.275,1.054,0.663,1.509,1.088c0.462,0.421,0.854,0.914,1.203,1.434
								c0.691,1.041,1.137,2.272,1.176,3.512c-0.244-0.573-0.444-1.139-0.728-1.67c-0.272-0.533-0.56-1.054-0.896-1.547
								C158.609,159.857,157.841,158.94,156.994,158.041z"/>
						</g>
						<g>
							<path style="fill:#FF8A8C;" d="M160.792,155.801c0.428,0.411,0.794,0.872,1.136,1.35c0.348,0.475,0.643,0.986,0.918,1.509
								c0.259,0.531,0.492,1.083,0.631,1.668c0.139,0.572,0.217,1.225-0.034,1.779c0.026-0.59-0.151-1.128-0.36-1.655
								c-0.221-0.522-0.455-1.04-0.716-1.55C161.854,157.875,161.293,156.869,160.792,155.801z"/>
						</g>
					</g>
				</g>
				<g>
					<g>
						<path style="fill:#FF8A8C;" d="M243.93,101.564c0.539,1.053,1.014,2.113,1.491,3.165c0.484,1.047,0.945,2.1,1.478,3.093
							c0.255,0.5,0.536,0.986,0.854,1.408c0.152,0.226,0.32,0.403,0.494,0.568l0.368,0.351c0.111,0.143,0.221,0.299,0.301,0.468
							c0.166,0.357,0.172,0.78,0.057,1.124c-0.127,0.339-0.325,0.605-0.539,0.837c-0.45,0.44-0.96,0.764-1.513,0.982
							c0.423-0.411,0.822-0.837,1.105-1.302c0.138-0.231,0.243-0.47,0.277-0.693c0.016-0.221-0.01-0.406-0.12-0.57
							c-0.117-0.17-0.285-0.295-0.496-0.459c-0.273-0.21-0.52-0.438-0.717-0.682c-0.407-0.488-0.716-1.012-1.006-1.538
							c-0.548-1.069-0.978-2.17-1.314-3.299C244.312,103.891,244.05,102.743,243.93,101.564z"/>
					</g>
					<path style="fill:#FFFFFF;" d="M250.488,115.872c0,0-4.779,3.221-9.16,0c0,0,1.862,5.583,5.577,4.965
						S250.488,115.872,250.488,115.872z"/>
					<path style="fill:#192B3D;" d="M239.848,104.266c0,0.713-0.578,1.292-1.291,1.292c-0.713,0-1.292-0.578-1.292-1.292
						c0-0.713,0.578-1.292,1.292-1.292C239.27,102.975,239.848,103.553,239.848,104.266z"/>
					<circle style="fill:#192B3D;" cx="251.212" cy="101.149" r="1.292"/>
					<g>
						<path style="fill:#BD7154;" d="M240.76,100.468c-1.639-0.014-3.167,0.013-4.617,0.359c-0.731,0.149-1.405,0.443-2.067,0.784
							c-0.68,0.335-1.24,0.848-1.897,1.364c0.289-0.76,0.745-1.52,1.429-2.043c0.659-0.545,1.457-0.942,2.291-1.132
							c0.835-0.183,1.69-0.226,2.517-0.109C239.239,99.804,240.049,100.037,240.76,100.468z"/>
					</g>
					<g>
						<path style="fill:#BD7154;" d="M255.503,96.961c-1.639-0.014-3.167,0.014-4.617,0.359c-0.731,0.149-1.405,0.443-2.067,0.784
							c-0.68,0.335-1.24,0.848-1.897,1.364c0.289-0.76,0.745-1.52,1.429-2.043c0.659-0.545,1.457-0.942,2.291-1.132
							c0.835-0.183,1.69-0.226,2.517-0.109C253.982,96.298,254.791,96.53,255.503,96.961z"/>
					</g>
				</g>
				<path style="fill:#192B3D;" d="M288.613,433.253c0,0,21.764,10.865,22.017,12.131c0.253,1.265-1.265,4.555-5.315,4.302
					c-4.049-0.253-18.728-5.061-22.271-4.808c-3.543,0.253-9.617-0.759-9.617-4.808c0-4.049,0.169-6.816,0.169-6.816H288.613z"/>
				<path style="fill:#192B3D;" d="M218.258,433.253c0,0,22.27,10.865,22.523,12.131c0.253,1.265-1.265,4.555-5.314,4.302
					c-4.049-0.253-18.728-5.061-22.271-4.808c-3.543,0.253-9.617-0.759-9.617-4.808c0-4.049,0.169-6.816,0.169-6.816H218.258z"/>
			</g>
		</g>
		<g>
			<circle style="fill:#F3F3F3;" cx="346.412" cy="219.557" r="9.856"/>
			<circle style="fill:none;stroke:#F3F3F3;stroke-miterlimit:10;" cx="380.816" cy="132.478" r="14.811"/>
			<circle style="fill:#F3F3F3;" cx="127.601" cy="138.364" r="14.811"/>
			<path style="fill:#F3F3F3;" d="M407.475,87.97c0,3.127-2.535,5.662-5.663,5.662c-3.127,0-5.663-2.535-5.663-5.662
				c0-3.127,2.535-5.663,5.663-5.663C404.94,82.307,407.475,84.842,407.475,87.97z"/>
			<path style="fill:none;stroke:#F3F3F3;stroke-miterlimit:10;" d="M396.016,259.645c0,3.127-2.535,5.663-5.663,5.663
				c-3.127,0-5.663-2.535-5.663-5.663c0-3.127,2.535-5.663,5.663-5.663C393.481,253.982,396.016,256.517,396.016,259.645z"/>
			<path style="fill:none;stroke:#F3F3F3;stroke-miterlimit:10;" d="M110.953,265.307c0,3.127-2.535,5.663-5.663,5.663
				c-3.127,0-5.662-2.535-5.662-5.663c0-3.127,2.535-5.663,5.662-5.663C108.418,259.645,110.953,262.18,110.953,265.307z"/>
			<path style="fill:none;stroke:#F3F3F3;stroke-miterlimit:10;" d="M103.85,92.311c0,3.127-2.535,5.662-5.663,5.662
				c-3.127,0-5.662-2.535-5.662-5.662c0-3.127,2.535-5.663,5.662-5.663C101.315,86.649,103.85,89.184,103.85,92.311z"/>
			<path style="fill:#F3F3F3;" d="M225.028,54.194c0,3.127-2.535,5.663-5.663,5.663c-3.127,0-5.663-2.535-5.663-5.663
				c0-3.127,2.535-5.663,5.663-5.663C222.493,48.531,225.028,51.067,225.028,54.194z"/>
			<path style="fill:#F3F3F3;" d="M169.601,384.811c0,3.127-2.535,5.663-5.663,5.663c-3.127,0-5.663-2.535-5.663-5.663
				c0-3.127,2.535-5.663,5.663-5.663C167.066,379.149,169.601,381.684,169.601,384.811z"/>
			<path style="fill:#F3F3F3;" d="M370.473,390.474c0,3.127-2.535,5.663-5.663,5.663c-3.127,0-5.663-2.535-5.663-5.663
				c0-3.127,2.535-5.663,5.663-5.663C367.938,384.811,370.473,387.347,370.473,390.474z"/>
		</g>
	</g>
</g>
</svg>
